<svg width="101" height="77" viewBox="0 0 101 77" fill="none" xmlns="http://www.w3.org/2000/svg">
<path d="M26.2953 70.5834C33.5103 70.5834 39.3592 66.1017 39.3592 60.5734C39.3592 55.045 33.5103 50.5634 26.2953 50.5634C19.0803 50.5634 13.2314 55.045 13.2314 60.5734C13.2314 66.1017 19.0803 70.5834 26.2953 70.5834Z" stroke="#292D32" stroke-width="1.5" stroke-linecap="round" stroke-linejoin="round"/>
<path d="M87.2601 53.9V14.7584C87.2601 6.41669 80.4351 5.26169 73.5263 6.70544L47.3985 12.1596C42.6252 13.1542 39.3592 16.0417 39.3592 20.2125V27.1746V31.8588V60.5413" stroke="#292D32" stroke-width="1.5" stroke-linecap="round" stroke-linejoin="round"/>
<path d="M74.1962 63.91C81.4112 63.91 87.2601 59.4284 87.2601 53.9C87.2601 48.3716 81.4112 43.89 74.1962 43.89C66.9813 43.89 61.1324 48.3716 61.1324 53.9C61.1324 59.4284 66.9813 63.91 74.1962 63.91Z" stroke="#292D32" stroke-width="1.5" stroke-linecap="round" stroke-linejoin="round"/>
<path d="M39.3592 30.5433L87.2601 20.5333" stroke="#292D32" stroke-width="1.5" stroke-linecap="round" stroke-linejoin="round"/>
</svg>
